<svg version="1.1" xmlns="http://www.w3.org/2000/svg" width="32" height="32" viewBox="0 0 32 32">
<title>album</title>
<path d="M16 14.667c-0.736 0-1.333 0.599-1.333 1.333s0.597 1.333 1.333 1.333 1.333-0.599 1.333-1.333c0-0.735-0.597-1.333-1.333-1.333z"></path>
<path d="M16 0c-8.823 0-16 7.177-16 16s7.177 16 16 16 16-7.177 16-16-7.177-16-16-16zM8 16c0 0.736-0.596 1.333-1.333 1.333s-1.333-0.597-1.333-1.333c0-5.881 4.785-10.667 10.667-10.667 0.737 0 1.333 0.597 1.333 1.333s-0.596 1.333-1.333 1.333c-4.412 0-8 3.588-8 8zM16 20c-2.205 0-4-1.795-4-4s1.795-4 4-4 4 1.795 4 4-1.795 4-4 4z"></path>
</svg>
