<svg width="15" height="13" viewBox="0 0 15 13" fill="none" xmlns="http://www.w3.org/2000/svg">
<path fill-rule="evenodd" clip-rule="evenodd" d="M3.823 2.647C2.04 2.647 0.589 4.098 0.589 5.882C0.589 6.044 0.457 6.176 0.295 6.176C0.132 6.176 0 6.044 0 5.882C0 3.774 1.715 2.06 3.823 2.06H11.175V0L14.41 2.352L11.175 4.705V2.647H3.823ZM14.1163 6.7639C14.1163 6.6019 14.2483 6.4709 14.4103 6.4709C14.5733 6.4709 14.7043 6.6019 14.7043 6.7639C14.7043 8.8709 12.9903 10.5879 10.8823 10.5879H3.5303V12.6449L0.2943 10.2929L3.5303 7.9419V9.9979H10.8823C12.6653 9.9979 14.1163 8.5489 14.1163 6.7639Z" fill="#FEFEFE"/>
</svg>
