<svg width="14" height="14" viewBox="0 0 14 14" fill="none" xmlns="http://www.w3.org/2000/svg">
<path fill-rule="evenodd" clip-rule="evenodd" d="M0.83475 5.96838C0.83475 3.13775 3.13775 0.83825 5.96575 0.83825C8.79725 0.83825 11.0976 3.14125 11.0976 5.96838C11.0976 8.79638 8.79725 11.1029 5.96575 11.1029C3.13775 11.1029 0.83475 8.79988 0.83475 5.96838M13.8757 13.2851L10.4738 9.88313C11.3864 8.834 11.9385 7.46463 11.9385 5.96838C11.9385 2.67488 9.25925 0 5.96925 0C2.67575 0 0 2.67838 0 5.96838C0 9.25925 2.67838 11.9376 5.96925 11.9376C7.4655 11.9376 8.834 11.3855 9.88313 10.4729L13.2851 13.8749C13.3665 13.9563 13.475 14 13.5809 14C13.6859 14 13.7952 13.9589 13.8757 13.8749C14.0367 13.7139 14.0367 13.447 13.8757 13.2851" fill="#333333"/>
</svg>
