<svg width="15" height="13" viewBox="0 0 15 13" fill="none" xmlns="http://www.w3.org/2000/svg">
<path fill-rule="evenodd" clip-rule="evenodd" d="M11.173 10H10.066C9.427 10 8.847 9.641 8.552 9.063L7.156 6.323L8.552 3.585C8.847 3.006 9.427 2.646 10.066 2.646H11.173V4.706L14.409 2.353L11.173 0V2.059H10.066C9.206 2.059 8.425 2.541 8.029 3.318L6.827 5.677L5.551 3.173C5.156 2.396 4.376 1.913 3.514 1.913H0.293C0.131 1.913 0 2.045 0 2.207C0 2.369 0.131 2.501 0.293 2.501H3.514C4.153 2.501 4.733 2.86 5.027 3.438L6.498 6.323L5.027 9.209C4.733 9.787 4.153 10.146 3.514 10.146H0.293C0.131 10.146 0 10.278 0 10.44C0 10.603 0.131 10.734 0.293 10.734H3.514C4.375 10.734 5.155 10.252 5.551 9.475L6.827 6.97L8.029 9.329C8.425 10.105 9.206 10.588 10.066 10.588H11.173V12.647L14.409 10.295L11.173 7.941V10Z" fill="#FEFEFE"/>
</svg>
