<svg height="32" viewBox="0 0 512 512" width="32" xmlns="http://www.w3.org/2000/svg">
    <path d="M256 181.561c-41.148 0-74.625 33.394-74.625 74.439s33.477 74.44 74.625 74.44 74.625-33.394 74.625-74.44-33.477-74.439-74.625-74.439zm10.609 85.049C263.81 269.4 259.95 271 256 271s-7.811-1.6-10.61-4.39c-2.79-2.8-4.39-6.66-4.39-10.61s1.6-7.81 4.39-10.61c2.79-2.79 6.66-4.39 10.61-4.39s7.81 1.6 10.609 4.39c2.79 2.8 4.391 6.66 4.391 10.61s-1.601 7.81-4.391 10.61z"/>
    <path d="M437.008 75.323C388.657 27.073 324.374.5 256 .5S123.343 27.073 74.992 75.323C26.633 123.582 0 187.748 0 256s26.633 132.418 74.992 180.677C123.343 484.927 187.626 511.5 256 511.5s132.657-26.573 181.008-74.823C485.367 388.418 512 324.252 512 256s-26.633-132.418-74.992-180.677zM161.287 410.581c-2.938 4.014-7.496 6.141-12.115 6.141-3.075 0-6.177-.942-8.848-2.897-40.337-29.525-67.645-72.62-76.893-121.346-1.544-8.139 3.802-15.989 11.941-17.534 8.136-1.543 15.989 3.801 17.534 11.94 7.825 41.229 30.958 77.713 65.137 102.732 6.686 4.893 8.138 14.279 3.244 20.964zM256 360.44c-57.69 0-104.625-46.852-104.625-104.44S198.31 151.561 256 151.561 360.625 198.412 360.625 256 313.69 360.44 256 360.44zm180.628-123.385c-.944.179-1.886.266-2.813.266-7.064 0-13.355-5.012-14.721-12.206-7.825-41.23-30.958-77.713-65.137-102.732-6.685-4.893-8.138-14.279-3.244-20.964 4.893-6.686 14.279-8.136 20.963-3.244 40.337 29.525 67.645 72.62 76.893 121.346 1.543 8.139-3.802 15.99-11.941 17.534z"/>
</svg>
