<svg width="14" height="14" viewBox="0 0 14 14" fill="none" xmlns="http://www.w3.org/2000/svg">
<path fill-rule="evenodd" clip-rule="evenodd" d="M9.9433 13.3638C10.0013 13.4208 10.0763 13.4497 10.1513 13.4497C10.2263 13.4497 10.3013 13.4208 10.3593 13.3638C12.1333 11.5888 13.1113 9.23075 13.1113 6.72375C13.1113 4.21875 12.1333 1.86075 10.3593 0.08575C10.2443 -0.02825 10.0583 -0.02925 9.9433 0.08675C9.8293 0.20075 9.8293 0.38675 9.9433 0.50175C11.6083 2.16475 12.5243 4.37575 12.5243 6.72375C12.5243 9.07375 11.6083 11.2847 9.9433 12.9478C9.8293 13.0627 9.8293 13.2488 9.9433 13.3638ZM0 4.67045V8.77945H2.824L6.346 11.5305V1.91845L2.824 4.67045H0ZM8.2465 10.0875C8.1715 10.0875 8.0965 10.0584 8.0385 10.0014C7.9245 9.88645 7.9245 9.70045 8.0385 9.58545C9.6165 8.00845 9.6165 5.44145 8.0385 3.86345C7.9245 3.74845 7.9245 3.56345 8.0385 3.44745C8.1535 3.33445 8.3395 3.33445 8.4545 3.44745C10.2605 5.25445 10.2605 8.19445 8.4545 10.0014C8.3965 10.0584 8.3215 10.0875 8.2465 10.0875Z" fill="#FEFEFE"/>
</svg>
